<?xml version="1.0" encoding="UTF-8" standalone="no"?>
<!DOCTYPE svg PUBLIC "-//W3C//DTD SVG 1.1//EN"
 "http://www.w3.org/Graphics/SVG/1.1/DTD/svg11.dtd">
<!-- Generated by graphviz version 2.36.0 (20140111.2315)
 -->
<!-- Title: finite_state_machine Pages: 1 -->
<svg width="576pt" height="257pt"
 viewBox="0.00 0.00 576.00 256.61" xmlns="http://www.w3.org/2000/svg" xmlns:xlink="http://www.w3.org/1999/xlink">
<g id="graph0" class="graph" transform="scale(0.784741 0.784741) rotate(0) translate(4 323)">
<title>finite_state_machine</title>
<polygon fill="white" stroke="none" points="-4,4 -4,-323 730,-323 730,4 -4,4"/>
<!-- LR_0 -->
<g id="node1" class="node"><title>LR_0</title>
<ellipse fill="white" stroke="black" cx="35" cy="-104" rx="30.5892" ry="30.5892"/>
<ellipse fill="none" stroke="black" cx="35" cy="-104" rx="34.5946" ry="34.5946"/>
<text text-anchor="middle" x="35" y="-100.3" font-family="Times,serif" font-size="14.00">LR_0</text>
</g>
<!-- LR_2 -->
<g id="node5" class="node"><title>LR_2</title>
<ellipse fill="white" stroke="black" cx="171" cy="-143" rx="30.5947" ry="30.5947"/>
<text text-anchor="middle" x="171" y="-139.3" font-family="Times,serif" font-size="14.00">LR_2</text>
</g>
<!-- LR_0&#45;&gt;LR_2 -->
<g id="edge1" class="edge"><title>LR_0&#45;&gt;LR_2</title>
<path fill="none" stroke="black" d="M68.4377,-113.441C87.521,-118.995 111.756,-126.048 131.765,-131.872"/>
<polygon fill="black" stroke="black" points="130.92,-135.271 141.5,-134.705 132.877,-128.55 130.92,-135.271"/>
<text text-anchor="middle" x="105" y="-132.8" font-family="Times,serif" font-size="14.00">SS(B)</text>
</g>
<!-- LR_1 -->
<g id="node6" class="node"><title>LR_1</title>
<ellipse fill="white" stroke="black" cx="171" cy="-54" rx="30.5947" ry="30.5947"/>
<text text-anchor="middle" x="171" y="-50.3" font-family="Times,serif" font-size="14.00">LR_1</text>
</g>
<!-- LR_0&#45;&gt;LR_1 -->
<g id="edge2" class="edge"><title>LR_0&#45;&gt;LR_1</title>
<path fill="none" stroke="black" d="M67.7561,-92.1507C87.1771,-84.9041 112.121,-75.5966 132.509,-67.989"/>
<polygon fill="black" stroke="black" points="133.963,-71.1826 142.108,-64.4075 131.515,-64.6243 133.963,-71.1826"/>
<text text-anchor="middle" x="105" y="-87.8" font-family="Times,serif" font-size="14.00">SS(S)</text>
</g>
<!-- LR_3 -->
<g id="node2" class="node"><title>LR_3</title>
<ellipse fill="white" stroke="black" cx="317" cy="-34" rx="30.5892" ry="30.5892"/>
<ellipse fill="none" stroke="black" cx="317" cy="-34" rx="34.5946" ry="34.5946"/>
<text text-anchor="middle" x="317" y="-30.3" font-family="Times,serif" font-size="14.00">LR_3</text>
</g>
<!-- LR_4 -->
<g id="node3" class="node"><title>LR_4</title>
<ellipse fill="white" stroke="black" cx="317" cy="-285" rx="30.5892" ry="30.5892"/>
<ellipse fill="none" stroke="black" cx="317" cy="-285" rx="34.5946" ry="34.5946"/>
<text text-anchor="middle" x="317" y="-281.3" font-family="Times,serif" font-size="14.00">LR_4</text>
</g>
<!-- LR_8 -->
<g id="node4" class="node"><title>LR_8</title>
<ellipse fill="white" stroke="black" cx="691" cy="-149" rx="30.5892" ry="30.5892"/>
<ellipse fill="none" stroke="black" cx="691" cy="-149" rx="34.5946" ry="34.5946"/>
<text text-anchor="middle" x="691" y="-145.3" font-family="Times,serif" font-size="14.00">LR_8</text>
</g>
<!-- LR_6 -->
<g id="node7" class="node"><title>LR_6</title>
<ellipse fill="white" stroke="black" cx="317" cy="-169" rx="30.5947" ry="30.5947"/>
<text text-anchor="middle" x="317" y="-165.3" font-family="Times,serif" font-size="14.00">LR_6</text>
</g>
<!-- LR_8&#45;&gt;LR_6 -->
<g id="edge13" class="edge"><title>LR_8&#45;&gt;LR_6</title>
<path fill="none" stroke="black" d="M656.827,-154.652C614.537,-161.546 539.093,-172.799 474,-177 446.502,-178.775 439.531,-178.169 412,-177 394.112,-176.24 374.362,-174.671 357.601,-173.121"/>
<polygon fill="black" stroke="black" points="357.881,-169.632 347.594,-172.167 357.217,-176.601 357.881,-169.632"/>
<text text-anchor="middle" x="504" y="-179.8" font-family="Times,serif" font-size="14.00">S(b)</text>
</g>
<!-- LR_5 -->
<g id="node8" class="node"><title>LR_5</title>
<ellipse fill="white" stroke="black" cx="443" cy="-105" rx="30.5947" ry="30.5947"/>
<text text-anchor="middle" x="443" y="-101.3" font-family="Times,serif" font-size="14.00">LR_5</text>
</g>
<!-- LR_8&#45;&gt;LR_5 -->
<g id="edge14" class="edge"><title>LR_8&#45;&gt;LR_5</title>
<path fill="none" stroke="black" d="M656.654,-143.643C617.249,-137.227 549.737,-125.968 492,-115 489.002,-114.431 485.903,-113.825 482.79,-113.203"/>
<polygon fill="black" stroke="black" points="483.4,-109.756 472.903,-111.194 482.005,-116.616 483.4,-109.756"/>
<text text-anchor="middle" x="565" y="-137.8" font-family="Times,serif" font-size="14.00">S(a)</text>
</g>
<!-- LR_2&#45;&gt;LR_4 -->
<g id="edge6" class="edge"><title>LR_2&#45;&gt;LR_4</title>
<path fill="none" stroke="black" d="M193.248,-163.953C217.275,-187.647 256.646,-226.471 284.307,-253.747"/>
<polygon fill="black" stroke="black" points="282.198,-256.583 291.776,-261.112 287.113,-251.599 282.198,-256.583"/>
<text text-anchor="middle" x="242" y="-233.8" font-family="Times,serif" font-size="14.00">S(A)</text>
</g>
<!-- LR_2&#45;&gt;LR_6 -->
<g id="edge4" class="edge"><title>LR_2&#45;&gt;LR_6</title>
<path fill="none" stroke="black" d="M201.141,-148.261C222.903,-152.191 252.88,-157.603 276.752,-161.914"/>
<polygon fill="black" stroke="black" points="276.44,-165.414 286.903,-163.746 277.684,-158.525 276.44,-165.414"/>
<text text-anchor="middle" x="242" y="-163.8" font-family="Times,serif" font-size="14.00">SS(b)</text>
</g>
<!-- LR_2&#45;&gt;LR_5 -->
<g id="edge5" class="edge"><title>LR_2&#45;&gt;LR_5</title>
<path fill="none" stroke="black" d="M200.154,-133.897C222.182,-127.186 253.715,-118.477 282,-114 322.665,-107.563 369.782,-105.561 402.302,-105.017"/>
<polygon fill="black" stroke="black" points="402.367,-108.516 412.321,-104.888 402.277,-101.517 402.367,-108.516"/>
<text text-anchor="middle" x="317" y="-117.8" font-family="Times,serif" font-size="14.00">SS(a)</text>
</g>
<!-- LR_1&#45;&gt;LR_3 -->
<g id="edge3" class="edge"><title>LR_1&#45;&gt;LR_3</title>
<path fill="none" stroke="black" d="M201.488,-49.9044C221.896,-47.0701 249.402,-43.2497 272.342,-40.0637"/>
<polygon fill="black" stroke="black" points="273.095,-43.4928 282.518,-38.6503 272.132,-36.5593 273.095,-43.4928"/>
<text text-anchor="middle" x="242" y="-50.8" font-family="Times,serif" font-size="14.00">S($end)</text>
</g>
<!-- LR_6&#45;&gt;LR_6 -->
<g id="edge9" class="edge"><title>LR_6&#45;&gt;LR_6</title>
<path fill="none" stroke="black" d="M305.047,-197.103C304.516,-207.969 308.5,-217 317,-217 322.578,-217 326.212,-213.111 327.9,-207.366"/>
<polygon fill="black" stroke="black" points="331.414,-207.408 328.953,-197.103 324.451,-206.694 331.414,-207.408"/>
<text text-anchor="middle" x="317" y="-220.8" font-family="Times,serif" font-size="14.00">S(b)</text>
</g>
<!-- LR_6&#45;&gt;LR_5 -->
<g id="edge10" class="edge"><title>LR_6&#45;&gt;LR_5</title>
<path fill="none" stroke="black" d="M344.601,-155.27C362.663,-145.948 386.751,-133.515 406.454,-123.347"/>
<polygon fill="black" stroke="black" points="408.162,-126.404 415.443,-118.707 404.951,-120.183 408.162,-126.404"/>
<text text-anchor="middle" x="382" y="-144.8" font-family="Times,serif" font-size="14.00">S(a)</text>
</g>
<!-- LR_5&#45;&gt;LR_5 -->
<g id="edge8" class="edge"><title>LR_5&#45;&gt;LR_5</title>
<path fill="none" stroke="black" d="M431.775,-133.581C431.407,-144.232 435.148,-153 443,-153 448.153,-153 451.535,-149.224 453.148,-143.618"/>
<polygon fill="black" stroke="black" points="456.638,-143.898 454.225,-133.581 449.678,-143.15 456.638,-143.898"/>
<text text-anchor="middle" x="443" y="-156.8" font-family="Times,serif" font-size="14.00">S(a)</text>
</g>
<!-- LR_7 -->
<g id="node9" class="node"><title>LR_7</title>
<ellipse fill="white" stroke="black" cx="565" cy="-82" rx="30.5947" ry="30.5947"/>
<text text-anchor="middle" x="565" y="-78.3" font-family="Times,serif" font-size="14.00">LR_7</text>
</g>
<!-- LR_5&#45;&gt;LR_7 -->
<g id="edge7" class="edge"><title>LR_5&#45;&gt;LR_7</title>
<path fill="none" stroke="black" d="M473.049,-99.4323C488.558,-96.4597 507.867,-92.7589 524.699,-89.5327"/>
<polygon fill="black" stroke="black" points="525.641,-92.916 534.803,-87.5961 524.323,-86.0412 525.641,-92.916"/>
<text text-anchor="middle" x="504" y="-99.8" font-family="Times,serif" font-size="14.00">S(b)</text>
</g>
<!-- LR_7&#45;&gt;LR_8 -->
<g id="edge11" class="edge"><title>LR_7&#45;&gt;LR_8</title>
<path fill="none" stroke="black" d="M592.41,-95.752C606.061,-102.908 622.968,-111.843 638,-120 642.484,-122.433 647.173,-125.007 651.82,-127.575"/>
<polygon fill="black" stroke="black" points="650.198,-130.678 660.64,-132.471 653.595,-124.558 650.198,-130.678"/>
<text text-anchor="middle" x="626" y="-123.8" font-family="Times,serif" font-size="14.00">S(b)</text>
</g>
<!-- LR_7&#45;&gt;LR_5 -->
<g id="edge12" class="edge"><title>LR_7&#45;&gt;LR_5</title>
<path fill="none" stroke="black" d="M535.501,-73.0697C522.08,-70.2163 505.986,-68.7654 492,-73 486.35,-74.7105 480.758,-77.3296 475.496,-80.3481"/>
<polygon fill="black" stroke="black" points="473.585,-77.4154 467,-85.7154 477.324,-83.3333 473.585,-77.4154"/>
<text text-anchor="middle" x="504" y="-76.8" font-family="Times,serif" font-size="14.00">S(a)</text>
</g>
</g>
</svg>
